# xmcd
# 
# Track frame offsets:
#     150
#     17370
#     29092
#     67025
#     87192
#     105060
#     127155
#     146452
#     171220
#     191265
#     211727
# 
# Disc length: 3007
# 
# Revision: 104
# Processed by: cddbd v1.5.2PL0 Copyright (c) Steve Scherf et al.
# Submitted via: BonkEnc v1.0.8
# 
DISCID=8c0bbd0b
DTITLE=Creed - Weathered
DYEAR=2001
DGENRE=Rock
TTITLE0=Bullets
TTITLE1=Freedom Fighter
TTITLE2=Who's Got My Back
TTITLE3=Signs
TTITLE4=One Last Breath
TTITLE5=My Sacrifice
TTITLE6=Stand Here With Me
TTITLE7=Weathered
TTITLE8=Hide
TTITLE9=Don't Stop Dancing
TTITLE10=Lullaby
EXTD=
EXTT0=
EXTT1=
EXTT2=
EXTT3=
EXTT4=
EXTT5=
EXTT6=
EXTT7=
EXTT8=
EXTT9=
EXTT10=
PLAYORDER=
